HIERARCHY
ROOT pelvis
{
  OFFSET 0 100 0
  CHANNELS 6 Xposition Yposition Zposition Zrotation Xrotation Yrotation
  JOINT pelvis_right_femur
  {
    OFFSET -10.78128 -3.44521 -0.5502486
    CHANNELS 3 Zrotation Xrotation Yrotation
    JOINT right_femur_tibia
    {
      OFFSET -0.8047443 -44.0398 -0.1307829
      CHANNELS 3 Zrotation Xrotation Yrotation
      JOINT right_tibia_foot
      {
        OFFSET 3.006224 -47.83518 -5
        CHANNELS 3 Zrotation Xrotation Yrotation
        End Site
        {
          OFFSET 0 -5 15
        }
      }
    }
  }
  JOINT pelvis_left_femur
  {
    OFFSET 10.78128 -3.44521 -0.5502486
    CHANNELS 3 Zrotation Xrotation Yrotation
    JOINT left_femur_tibia
    {
      OFFSET 0.8047443 -44.0398 -0.1307829
      CHANNELS 3 Zrotation Xrotation Yrotation
      JOINT left_tibia_foot
      {
        OFFSET -4.370144 -48.10324 -4.275266
        CHANNELS 3 Zrotation Xrotation Yrotation
        End Site
        {
          OFFSET 0 -5 15
        }
      }
    }
  }
  JOINT pelvis_spine1
  {
    OFFSET 0 6.468898 -3.129235
    CHANNELS 3 Zrotation Xrotation Yrotation
    JOINT spine1
    {
      OFFSET 0 23.15396 4.99043
      CHANNELS 3 Zrotation Xrotation Yrotation
      JOINT spine2
      {
        OFFSET 0 20.79997 -5.064912
        CHANNELS 3 Zrotation Xrotation Yrotation
        JOINT neck
        {
          OFFSET 0 14.38658 9.616178
          CHANNELS 3 Zrotation Xrotation Yrotation
          End Site
          {
            OFFSET 0 20 0
          }
        }
      }
      JOINT right_manubrium
      {
        OFFSET -5.722621 16.35077 3.967754
        CHANNELS 3 Zrotation Xrotation Yrotation
        JOINT right_clavicle
        {
          OFFSET -13.16364 1.694482 -4.693211
          CHANNELS 3 Zrotation Xrotation Yrotation
          JOINT right_humerus
          {
            OFFSET -28.5034 -0.3100689 -2.792744
            CHANNELS 3 Zrotation Xrotation Yrotation
            JOINT right_radius
            {
              OFFSET -25.15693 0.02248979 -1.271978
              CHANNELS 3 Zrotation Xrotation Yrotation
              End Site
              {
                OFFSET -15 0 0
              }
            }
          }
        }
      }
      JOINT left_manubrium
      {
        OFFSET 5.722621 16.35077 3.967754
        CHANNELS 3 Zrotation Xrotation Yrotation
        JOINT left_clavicle
        {
          OFFSET 13.16364 1.694482 -4.693211
          CHANNELS 3 Zrotation Xrotation Yrotation
          JOINT left_humerus
          {
            OFFSET 29.39168 -1.063119 -2.237045
            CHANNELS 3 Zrotation Xrotation Yrotation
            JOINT left_radius
            {
              OFFSET 24.59957 -0.9528479 0.9047498
              CHANNELS 3 Zrotation Xrotation Yrotation
              End Site
              {
                OFFSET 15 -0 -0
              }
            }
          }
        }
      }
    }
  }
}
MOTION
Frames: 9
Frame Time: 0.0416666666667
1821.277 103.9859 -35.01025 -7.533706 12.4144 -155.7359 0.09375869 -11.64707 3.212946 -0 34.36479 -0 2.645803 -14.24925 -13.47677 -4.533979 15.63885 -7.625459 -0 29.04114 -0 -6.284748 -15.74752 18.06358 -1.852948 -0.02486955 2.76634 0.7850102 9.934778 -7.878002 1.80513 22.02365 6.904769 2.13009 -15.6574 8.696739 2.571753 -13.66517 10.61653 91.85307 28.37509 -22.9256 -0 0 9.977687 -24.63663 18.7907 10.80007 6.086347 -21.64531 -5.191885 -81.54728 22.20082 4.852683 0 0 -25.65899 1.381198 8.24538 10.82682
1818.865 103.9801 -41.66088 -7.633931 12.365 -155.2852 0.09753408 -11.62992 3.215727 -0 34.36896 -0 2.641322 -14.25846 -13.48142 -4.532016 15.64129 -7.625313 -0 29.07337 -0 -6.286957 -15.7421 18.07225 -1.852247 -0.02479817 2.768478 0.7859995 9.937246 -7.879487 1.804034 22.02164 6.904283 2.131439 -15.65967 8.693624 2.572531 -13.66883 10.61803 91.85194 28.37319 -22.92674 -0 0 9.980424 -24.63508 18.78711 10.79978 6.085508 -21.64631 -5.191816 -81.55025 22.20015 4.860238 0 0 -25.65827 1.379852 8.239869 10.82952
1816.402 103.977 -48.29365 -7.734256 12.31597 -154.8358 0.100995 -11.60694 3.218864 -0 34.38315 -0 2.639333 -14.26906 -13.48582 -4.530403 15.63766 -7.624822 -0 29.104 -0 -6.288271 -15.73606 18.08254 -1.851311 -0.02450162 2.77113 0.7866173 9.940077 -7.88041 1.802788 22.01986 6.904545 2.132764 -15.66167 8.691187 2.573813 -13.67306 10.61976 91.84994 28.37227 -22.92657 -0 0 9.984647 -24.63552 18.78552 10.80051 6.084115 -21.64673 -5.191786 -81.55467 22.19973 4.870758 0 0 -25.65566 1.377758 8.235025 10.83352
1813.889 103.9768 -54.90765 -7.834228 12.26607 -154.3875 0.1037469 -11.58088 3.221992 -0 34.40549 -0 2.640024 -14.27981 -13.48945 -4.529319 15.62851 -7.624045 -0 29.12955 -0 -6.288562 -15.73014 18.09323 -1.850251 -0.02401937 2.773982 0.7867999 9.94294 -7.880679 1.801538 22.01851 6.90551 2.133915 -15.66318 8.689688 2.575443 -13.67736 10.62151 91.84731 28.37241 -22.92511 -0 0 9.98984 -24.63786 18.78608 10.80217 6.082341 -21.64656 -5.191799 -81.56 22.1996 4.882973 0 0 -25.65151 1.375175 8.231386 10.83832
1811.324 103.9793 -61.50193 -7.933365 12.21412 -153.94 0.1054847 -11.5548 3.224749 -0 34.43326 -0 2.643266 -14.28948 -13.49191 -4.528879 15.61501 -7.623078 -0 29.14717 -0 -6.287825 -15.725 18.10309 -1.849192 -0.02341122 2.776704 0.7865355 9.945506 -7.880277 1.800428 22.01772 6.907051 2.134766 -15.66404 8.689281 2.577225 -13.68123 10.62307 91.84436 28.37358 -22.92258 -0 0 9.995387 -24.6418 18.78868 10.80454 6.080398 -21.64582 -5.191853 -81.56562 22.19976 4.895447 0 0 -25.64632 1.37241 8.229343 10.84335
1808.708 103.9841 -68.07554 -8.031216 12.15914 -153.4928 0.1060271 -11.5317 3.226823 -0 34.46315 -0 2.648634 -14.29698 -13.49295 -4.529122 15.5988 -7.622042 -0 29.155 -0 -6.286172 -15.72122 18.11098 -1.848255 -0.02274979 2.778986 0.7858638 9.947487 -7.879264 1.799581 22.01759 6.908982 2.135224 -15.66416 8.689989 2.578951 -13.68425 10.62428 91.84146 28.37562 -22.91927 -0 0 10.00064 -24.64685 18.79298 10.80734 6.078515 -21.64461 -5.191941 -81.57086 22.20019 4.906743 0 0 -25.64072 1.369784 8.229099 10.84804
1806.04 103.9904 -74.62762 -8.12741 12.1004 -153.0457 0.1053365 -11.51418 3.227989 -0 34.49172 -0 2.655457 -14.3015 -13.49247 -4.530007 15.58181 -7.621063 -0 29.15233 -0 -6.283817 -15.71922 18.11604 -1.847545 -0.02211198 2.780574 0.7848709 9.948664 -7.877769 1.799089 22.01811 6.911074 2.135245 -15.66354 8.691711 2.580424 -13.68608 10.625 91.83891 28.37828 -22.9156 -0 0 10.005 -24.65241 18.79845 10.81024 6.076904 -21.64308 -5.192051 -81.57514 22.20084 4.915587 0 0 -25.63536 1.367594 8.230645 10.85186
1803.322 103.9974 -81.15742 -8.221709 12.03758 -152.5983 0.1035202 -11.50415 3.22813 -0 34.51572 -0 2.662911 -14.30258 -13.49056 -4.531418 15.56602 -7.620259 -0 29.1397 -0 -6.281046 -15.71917 18.11775 -1.84714 -0.02157015 2.781299 0.7836783 9.94892 -7.875973 1.799002 22.01921 6.913084 2.134834 -15.66227 8.69423 2.581481 -13.68653 10.62516 91.83702 28.38124 -22.91198 -0 0 10.00799 -24.65784 18.80445 10.8129 6.075745 -21.64141 -5.19217 -81.57798 22.20163 4.921013 0 0 -25.63084 1.366081 8.23377 10.85438
1800.553 104.0041 -87.66437 -8.314036 11.97074 -152.1503 0.100814 -11.50261 3.22725 -0 34.5325 -0 2.670112 -14.30016 -13.48747 -4.53318 15.55324 -7.61972 -0 29.11878 -0 -6.278183 -15.72105 18.11597 -1.847081 -0.02118415 2.781092 0.7824277 9.948241 -7.874089 1.799321 22.02075 6.914782 2.134046 -15.66051 8.697242 2.582008 -13.68558 10.62475 91.83598 28.38414 -22.90883 -0 0 10.00929 -24.66249 18.81026 10.81502 6.075159 -21.63979 -5.192285 -81.57909 22.20246 4.922464 0 0 -25.62766 1.365405 8.238083 10.85534
